<?xml version="1.0" standalone="no"?>
<!DOCTYPE svg PUBLIC "-//W3C//DTD SVG 20010904//EN"
 "http://www.w3.org/TR/2001/REC-SVG-20010904/DTD/svg10.dtd">
<svg version="1.0" xmlns="http://www.w3.org/2000/svg"
 width="700.000000pt" height="700.000000pt" viewBox="0 0 700.000000 700.000000"
 preserveAspectRatio="xMidYMid meet">
<metadata>
Created by potrace 1.14, written by Peter Selinger 2001-2017
</metadata>
<g transform="translate(0.000000,700.000000) scale(0.100000,-0.100000)"
fill="#000000" stroke="none">
<path d="M2869 6984 c-202 -36 -375 -120 -500 -244 -116 -114 -169 -227 -177
-375 -9 -194 74 -344 286 -515 112 -90 167 -235 136 -357 -26 -100 -83 -168
-179 -214 l-60 -28 -885 -1 c-487 -1 -896 -3 -910 -5 -232 -32 -426 -172 -517
-372 -61 -133 -63 -153 -60 -668 l2 -470 24 -50 c32 -64 93 -124 156 -155 74
-35 189 -35 267 2 57 27 139 100 212 190 71 87 173 156 286 193 55 18 187 25
240 13 70 -17 89 -24 140 -51 271 -144 436 -488 416 -867 -3 -63 -8 -126 -11
-140 -3 -14 -7 -37 -10 -51 -3 -14 -16 -60 -30 -103 -92 -280 -283 -474 -515
-522 -55 -11 -164 -4 -228 16 -123 37 -228 114 -332 245 -56 70 -149 138 -213
156 -59 16 -137 14 -196 -6 -64 -21 -144 -92 -179 -159 l-27 -51 -2 -905 c-2
-802 -1 -913 13 -975 54 -231 219 -411 449 -487 l70 -23 925 0 925 0 55 26
c162 77 229 265 151 424 -20 40 -53 84 -92 121 -194 186 -216 210 -251 281
-46 92 -62 166 -56 268 20 335 365 599 813 622 520 26 950 -291 930 -684 -7
-132 -89 -291 -196 -383 -109 -92 -175 -166 -205 -225 -25 -51 -29 -72 -29
-140 0 -65 5 -90 24 -130 32 -63 93 -124 156 -156 l50 -24 465 -2 c433 -3 471
-2 547 17 219 52 388 208 471 433 l27 72 5 930 5 930 26 55 c102 215 368 246
541 64 213 -224 261 -261 390 -298 69 -20 185 -20 257 -1 242 64 441 309 507
625 19 90 25 298 12 400 -35 262 -182 512 -369 626 -92 56 -161 76 -264 76
-101 1 -117 -1 -196 -31 -103 -39 -168 -92 -315 -257 -56 -64 -130 -116 -186
-131 -28 -8 -145 -9 -173 -2 -79 20 -166 94 -206 174 l-24 50 -6 490 c-5 409
-8 499 -22 544 -53 178 -185 336 -344 412 -132 63 -123 62 -658 68 l-490 6
-59 30 c-64 32 -110 80 -147 152 -20 38 -24 62 -24 127 0 134 40 196 231 364
55 49 116 130 156 207 45 88 55 242 24 350 -45 153 -171 296 -346 393 -61 34
-209 86 -292 103 -82 17 -322 19 -409 3z"/>
</g>
</svg>
